<svg width="100%" viewBox="0 0 680 460" role="img" style="" xmlns="http://www.w3.org/2000/svg">
<title style="fill:rgb(0, 0, 0);stroke:none;color:rgb(11, 11, 11);stroke-width:1px;stroke-linecap:butt;stroke-linejoin:miter;opacity:1;font-family:&quot;Anthropic Sans&quot;, -apple-system, BlinkMacSystemFont, &quot;Segoe UI&quot;, sans-serif;font-size:16px;font-weight:400;text-anchor:start;dominant-baseline:auto">TSO Book Club icon-only mark</title>
<desc style="fill:rgb(0, 0, 0);stroke:none;color:rgb(11, 11, 11);stroke-width:1px;stroke-linecap:butt;stroke-linejoin:miter;opacity:1;font-family:&quot;Anthropic Sans&quot;, -apple-system, BlinkMacSystemFont, &quot;Segoe UI&quot;, sans-serif;font-size:16px;font-weight:400;text-anchor:start;dominant-baseline:auto">A standalone circular icon showing an open book in CSIR navy blue topped with three small flame shapes in red, green and gold, with no accompanying text.</desc>
<defs>
<clipPath id="circleClipIcon">
<circle cx="340" cy="230" r="160"/>
</clipPath>
</defs>

<circle cx="340" cy="230" r="172" fill="none" stroke="#1B3A7A" stroke-width="3" style="fill:none;stroke:rgb(27, 58, 122);color:rgb(11, 11, 11);stroke-width:3px;stroke-linecap:butt;stroke-linejoin:miter;opacity:1;font-family:&quot;Anthropic Sans&quot;, -apple-system, BlinkMacSystemFont, &quot;Segoe UI&quot;, sans-serif;font-size:16px;font-weight:400;text-anchor:start;dominant-baseline:auto"/>
<circle cx="340" cy="230" r="160" fill="#FFFFFF" style="fill:rgb(255, 255, 255);stroke:none;color:rgb(11, 11, 11);stroke-width:1px;stroke-linecap:butt;stroke-linejoin:miter;opacity:1;font-family:&quot;Anthropic Sans&quot;, -apple-system, BlinkMacSystemFont, &quot;Segoe UI&quot;, sans-serif;font-size:16px;font-weight:400;text-anchor:start;dominant-baseline:auto"/>

<g clip-path="url(#circleClipIcon)" style="fill:rgb(0, 0, 0);stroke:none;color:rgb(11, 11, 11);stroke-width:1px;stroke-linecap:butt;stroke-linejoin:miter;opacity:1;font-family:&quot;Anthropic Sans&quot;, -apple-system, BlinkMacSystemFont, &quot;Segoe UI&quot;, sans-serif;font-size:16px;font-weight:400;text-anchor:start;dominant-baseline:auto">
<path d="M 250 205 Q 250 178 277 178 L 340 190 L 340 295 L 277 283 Q 250 277 250 250 Z" fill="#1B3A7A" style="fill:rgb(27, 58, 122);stroke:none;color:rgb(11, 11, 11);stroke-width:1px;stroke-linecap:butt;stroke-linejoin:miter;opacity:1;font-family:&quot;Anthropic Sans&quot;, -apple-system, BlinkMacSystemFont, &quot;Segoe UI&quot;, sans-serif;font-size:16px;font-weight:400;text-anchor:start;dominant-baseline:auto"/>
<path d="M 430 205 Q 430 178 403 178 L 340 190 L 340 295 L 403 283 Q 430 277 430 250 Z" fill="#1B3A7A" style="fill:rgb(27, 58, 122);stroke:none;color:rgb(11, 11, 11);stroke-width:1px;stroke-linecap:butt;stroke-linejoin:miter;opacity:1;font-family:&quot;Anthropic Sans&quot;, -apple-system, BlinkMacSystemFont, &quot;Segoe UI&quot;, sans-serif;font-size:16px;font-weight:400;text-anchor:start;dominant-baseline:auto"/>

<path d="M 318 122 C 300 132 291 153 299 170 C 306 157 318 152 318 152 C 318 152 330 157 337 170 C 345 153 336 132 318 122 Z" fill="#E11D2E" style="fill:rgb(225, 29, 46);stroke:none;color:rgb(11, 11, 11);stroke-width:1px;stroke-linecap:butt;stroke-linejoin:miter;opacity:1;font-family:&quot;Anthropic Sans&quot;, -apple-system, BlinkMacSystemFont, &quot;Segoe UI&quot;, sans-serif;font-size:16px;font-weight:400;text-anchor:start;dominant-baseline:auto"/>
<path d="M 345 130 C 332 138 326 154 332 167 C 338 157 345 154 345 154 C 345 154 352 157 358 167 C 364 154 358 138 345 130 Z" fill="#16A34A" style="fill:rgb(22, 163, 74);stroke:none;color:rgb(11, 11, 11);stroke-width:1px;stroke-linecap:butt;stroke-linejoin:miter;opacity:1;font-family:&quot;Anthropic Sans&quot;, -apple-system, BlinkMacSystemFont, &quot;Segoe UI&quot;, sans-serif;font-size:16px;font-weight:400;text-anchor:start;dominant-baseline:auto"/>
<path d="M 332 116 C 320 123 314 137 319 148 C 325 140 332 137 332 137 C 332 137 339 140 345 148 C 350 137 344 123 332 116 Z" fill="#F2A900" style="fill:rgb(242, 169, 0);stroke:none;color:rgb(11, 11, 11);stroke-width:1px;stroke-linecap:butt;stroke-linejoin:miter;opacity:1;font-family:&quot;Anthropic Sans&quot;, -apple-system, BlinkMacSystemFont, &quot;Segoe UI&quot;, sans-serif;font-size:16px;font-weight:400;text-anchor:start;dominant-baseline:auto"/>
</g>

<circle cx="340" cy="230" r="160" fill="none" stroke="#1B3A7A" stroke-width="1" style="fill:none;stroke:rgb(27, 58, 122);color:rgb(11, 11, 11);stroke-width:1px;stroke-linecap:butt;stroke-linejoin:miter;opacity:1;font-family:&quot;Anthropic Sans&quot;, -apple-system, BlinkMacSystemFont, &quot;Segoe UI&quot;, sans-serif;font-size:16px;font-weight:400;text-anchor:start;dominant-baseline:auto"/>
</svg>